# xmcd
#
# Track frame offsets:
#	150
#	16587
#	33171
#	50122
#	63238
#	80732
#	97640
#	116387
#	128135
#	145116
#	162523
#	177971
#	191180
#	210081
#	224571
#	238482
#	254341
#	270757
#
# Disc length: 3821 seconds
#
# Revision: 3
# Processed by: cddbd v1.5.2PL0 Copyright (c) Steve Scherf et al.
# Submitted via: audiograbber 1.83.01
#
DISCID=f60eeb12
DTITLE=Various Artist - CDX 261
DYEAR=2001
DGENRE=Country
TTITLE0=Tracy Byrd - A Good Way To Get On My Bad Side
TTITLE1=Tammy Cochran - Angels In Waiting
TTITLE2=Shenandoah - Building A Home
TTITLE3=Elbert West - Diddley
TTITLE4=John Rich - Forever Loving You
TTITLE5=Loretta Lynn - I Can't Hear The Music
TTITLE6=Lee Greenwood - I'm Trying
TTITLE7=Charlie Robinson - I Want You Bad
TTITLE8=Trisha Yearwood - I Would've Loved You Anyway
TTITLE9=Kristin Garner - Lightly
TTITLE10=Shane Sellers - Mathiew, Mark, Luke and Earnhardt
TTITLE11=Kacey Jones - Till Dale Earnhardt Wins Cup #8
TTITLE12=Brad Paisley - Two People Fell In Love
TTITLE13=The Bellamy Bros - What'll I Do
TTITLE14=James O'Neal - When I Think About Angels
TTITLE15=Alan Jackson - When Somebody Loves You
TTITLE16=Rhonda Morrison - When The Love Comes Through
TTITLE17=Rascal Flatt - While You Loved Me
EXTD=
EXTT0=
EXTT1=
EXTT2=
EXTT3=
EXTT4=
EXTT5=
EXTT6=
EXTT7=
EXTT8=
EXTT9=
EXTT10=
EXTT11=
EXTT12=
EXTT13=
EXTT14=
EXTT15=
EXTT16=
EXTT17=
PLAYORDER=
